<?xml version="1.0" encoding="utf-8"?>
<svg fill="#fff" width="512px" height="512px" viewBox="0 0 512 512" xmlns="http://www.w3.org/2000/svg">
<g stroke="#ff6" stroke-width="21px">
<path d="M 30 -1 74 512" class="highway"/>
<path d="M 134 520 70 418" class="highway"/>
</g>
<g stroke="#cdc" stroke-width="2" fill="#ded">
<path d="M -1 -1 V 512 L 64 512 20 -1 Z"/>
<path d="M 50 120 C 90 110,100 80,200 80 L 195 -1 40 -1 Z"/>
<path d="M 51 135 C 91 125,101,95,201 94 L 195 200 C 195 240,110 400, 74 400 Z"/>
<path d="M 76 440 83 512 120 512 Z"/>
<path d="M 210 -1 216 88 212 160 H 300 V -1 Z"/>
<path d="M 316 -1 V 40 H 475 V -1 Z"/>
<path d="M 490 -1 V 40 H 513 V -1 Z"/>
<path d="M 490 55 V 90 H 513 V 55 Z"/>
<path d="M 490 100 V 120 H 513 V 100 Z"/>
<path d="M 490 130 V 174 L 513 180 513 130 Z"/>
<path d="M 212 178 H 305 L 480 190 513 197 513 312 410 345 323 337 280 240 C 275 230, 260 200, 230 200  L 210 200 Z"/>
<path d="M 208 215 H 220 C 262 215, 255 240, 283 290 L 308 342 305 380 200 389 94 412 C 120 410, 208 260, 208 215"/>
<circle cx="74" cy="419" r="5"/>
<path d="M 323 384 325 355 406 363 403 402 Z"/>
<path d="M 423 361 513 330 V 432 L 420 408 Z"/>
<path d="M 90 430 200 410 307 400 513 450 V 513 H 144 Z" />
</g>
<g stroke="#0a0" fill="#7d6">
<path d="M 316 55 V 160.5 L 475 172 V 55 Z" class="park"/>
<path d="M 200 290 H 283 L 308 342 305 380 200 389 Z" class="park"/>
</g>
<path d="M -10 260 C 100 230, 30 310, 513 260" stroke="#2ae" stroke-width="31px" fill="none" />
<path d="M 49.5 230 54 280" class="highway overlay" stroke="#ff6" stroke-width="18px"/>
<g stroke="#fff" stroke-width="15px">
<path d="M 188 255 171 294" class="road"/>
<path d="M 276.5 255 295 294" class="road"/>
</g>
</svg>
